<svg xmlns="http://www.w3.org/2000/svg" xmlns:xlink="http://www.w3.org/1999/xlink"
    viewBox="0 0 210 210" width="210" height="210" preserveAspectRatio="xMidYMid meet"
    style="width: 100%; height: 100%; transform: translate3d(0px, 0px, 0px); content-visibility: visible;">
    <defs>
        <clipPath id="__lottie_element_2">
            <rect width="210" height="210" x="0" y="0"></rect>
        </clipPath>
        <clipPath id="__lottie_element_4">
            <path d="M0,0 L800,0 L800,600 L0,600z"></path>
        </clipPath>
    </defs>
    <g clip-path="url(#__lottie_element_2)">
        <g clip-path="url(#__lottie_element_4)" transform="matrix(1,0,0,1,-295,-195)" opacity="1"
            style="display: block;">
            <g transform="matrix(1,0,0,1,399.75,300.5)" opacity="1" style="display: block;">
                <g opacity="1" transform="matrix(1,0,0,1,0.25,-0.5)">
                    <path stroke-linecap="butt" stroke-linejoin="miter" fill-opacity="0"
                        stroke-miterlimit="4" stroke="rgb(255,255,255)" stroke-opacity="1"
                        stroke-width="6"
                        d=" M0,-98.72250366210938 C54.48495101928711,-98.72250366210938 98.72250366210938,-54.48495101928711 98.72250366210938,0 C98.72250366210938,54.48495101928711 54.48495101928711,98.72250366210938 0,98.72250366210938 C-54.48495101928711,98.72250366210938 -98.72250366210938,54.48495101928711 -98.72250366210938,0 C-98.72250366210938,-54.48495101928711 -54.48495101928711,-98.72250366210938 0,-98.72250366210938z"></path>
                </g>
            </g>
            <g transform="matrix(0,1,-1,0,399.25,300.25)" opacity="1" style="display: block;">
                <g opacity="1" transform="matrix(1,0,0,1,0,0)">
                    <path stroke-linecap="butt" stroke-linejoin="miter" fill-opacity="0"
                        stroke-miterlimit="4" stroke="rgb(255,255,255)" stroke-opacity="1"
                        stroke-width="6" d=" M-0.25,-98.5 C-0.25,-98.5 -0.25,97 -0.25,97"></path>
                </g>
            </g>
            <g transform="matrix(0,1,-1,0,399.25,232.75)" opacity="1" style="display: block;">
                <g opacity="1" transform="matrix(1,0,0,1,0,0)">
                    <path stroke-linecap="butt" stroke-linejoin="miter" fill-opacity="0"
                        stroke-miterlimit="4" stroke="rgb(255,255,255)" stroke-opacity="1"
                        stroke-width="6"
                        d=" M-0.25,-71.375 C-0.25,-71.375 22.25,-44.15700149536133 22.25,-0.718999981880188 C22.25,38.96900177001953 -0.25,70.375 -0.25,70.375"></path>
                </g>
            </g>
            <g transform="matrix(0,-1,-1,0,399.25,367.25)" opacity="1" style="display: block;">
                <g opacity="1" transform="matrix(1,0,0,1,0,0)">
                    <path stroke-linecap="butt" stroke-linejoin="miter" fill-opacity="0"
                        stroke-miterlimit="4" stroke="rgb(255,255,255)" stroke-opacity="1"
                        stroke-width="6"
                        d=" M-0.25,-71.375 C-0.25,-71.375 22.25,-44.15700149536133 22.25,-0.718999981880188 C22.25,38.96900177001953 -0.25,70.375 -0.25,70.375"></path>
                </g>
            </g>
            <g transform="matrix(1,0,0,1,399.75,300.875)" opacity="1" style="display: block;">
                <g opacity="0" transform="matrix(1,0,0,1,0,0)">
                    <path stroke-linecap="round" stroke-linejoin="miter" fill-opacity="0"
                        stroke-miterlimit="4" stroke="rgb(255,255,255)" stroke-opacity="1"
                        stroke-width="6"
                        d=" M0.21899999678134918,97.375 C64.5,97.375 99.125,43.625999450683594 99.125,-0.6240000128746033 C99.125,-43.874000549316406 65.75,-99.5 0.21899999678134918,-99.5"></path>
                </g>
                <g opacity="1" transform="matrix(1,0,0,1,0,0)">
                    <path stroke-linecap="round" stroke-linejoin="miter" fill-opacity="0"
                        stroke-miterlimit="4" stroke="rgb(255,255,255)" stroke-opacity="1"
                        stroke-width="6"
                        d=" M0.21899999678134918,97.375 C26.810199737548828,85.61055755615234 54.24581527709961,40.57508850097656 54.24581527709961,-0.6248714327812195 C54.24581527709961,-45.40076446533203 27.406620025634766,-85.66588592529297 0.21899999678134918,-99.5"></path>
                </g>
            </g>
            <g transform="matrix(1,0,0,1,399.75,300.875)" opacity="1" style="display: block;">
                <g opacity="0" transform="matrix(1,0,0,1,0,0)">
                    <path stroke-linecap="round" stroke-linejoin="miter" fill-opacity="0"
                        stroke-miterlimit="4" stroke="rgb(255,255,255)" stroke-opacity="1"
                        stroke-width="6"
                        d=" M0.21899999678134918,97.375 C64.5,97.375 99.125,43.625999450683594 99.125,-0.6240000128746033 C99.125,-43.874000549316406 65.75,-99.5 0.21899999678134918,-99.5"></path>
                </g>
                <g opacity="0" transform="matrix(1,0,0,1,0,0)">
                    <path stroke-linecap="round" stroke-linejoin="miter" fill-opacity="0"
                        stroke-miterlimit="4" stroke="rgb(255,255,255)" stroke-opacity="1"
                        stroke-width="6"
                        d=" M0.21899999678134918,97.375 C64.5,97.375 99.125,43.625999450683594 99.125,-0.6240000128746033 C99.125,-43.874000549316406 65.75,-99.5 0.21899999678134918,-99.5"></path>
                </g>
            </g>
            <g transform="matrix(1,0,0,1,399.75,300.875)" opacity="1" style="display: block;">
                <g opacity="1" transform="matrix(1,0,0,1,0,0)">
                    <path stroke-linecap="round" stroke-linejoin="miter" fill-opacity="0"
                        stroke-miterlimit="4" stroke="rgb(255,255,255)" stroke-opacity="1"
                        stroke-width="6"
                        d=" M0.21899999678134918,97.375 C-19.054121017456055,79.5177993774414 -34.65205001831055,37.510677337646484 -34.835052490234375,-0.625 C-35.052913665771484,-45.62512969970703 -12.889758110046387,-87.54647827148438 0.21899999678134918,-99.5"></path>
                </g>
                <g opacity="1" transform="matrix(1,0,0,1,0,0)">
                    <path stroke-linecap="round" stroke-linejoin="miter" fill-opacity="0"
                        stroke-miterlimit="4" stroke="rgb(255,255,255)" stroke-opacity="1"
                        stroke-width="6"
                        d=" M0.8995950222015381,97.59285736083984 C-63.125518798828125,95.21450805664062 -92.0700454711914,37.77857971191406 -92.0970458984375,-0.625 C-92.12918090820312,-41.92137908935547 -61.13630294799805,-98.03763580322266 0.7906649112701416,-99.5"></path>
                </g>
            </g>
        </g>
    </g>
</svg>